<mxfile host="app.diagrams.net" modified="2022-11-13T06:34:08.385Z" agent="5.0 (Windows NT 10.0; Win64; x64) AppleWebKit/537.36 (KHTML, like Gecko) Chrome/107.0.0.0 Safari/537.36" etag="-AnZ-KKKqHKDf3ccep5e" version="20.5.3" type="github">
  <diagram id="R2lEEEUBdFMjLlhIrx00" name="Page-1">
    <mxGraphModel dx="3157" dy="1371" grid="1" gridSize="10" guides="1" tooltips="1" connect="1" arrows="1" fold="1" page="1" pageScale="1" pageWidth="850" pageHeight="1100" math="0" shadow="0" extFonts="Permanent Marker^https://fonts.googleapis.com/css?family=Permanent+Marker">
      <root>
        <mxCell id="0" />
        <mxCell id="1" parent="0" />
        <mxCell id="fE8A6RjjX8CwtV2EgiGH-54" style="edgeStyle=orthogonalEdgeStyle;rounded=0;orthogonalLoop=1;jettySize=auto;html=1;exitX=1;exitY=0.25;exitDx=0;exitDy=0;entryX=0;entryY=1;entryDx=0;entryDy=0;fontSize=19;" edge="1" parent="1" source="fE8A6RjjX8CwtV2EgiGH-2" target="fE8A6RjjX8CwtV2EgiGH-23">
          <mxGeometry relative="1" as="geometry" />
        </mxCell>
        <mxCell id="fE8A6RjjX8CwtV2EgiGH-55" style="edgeStyle=orthogonalEdgeStyle;rounded=0;orthogonalLoop=1;jettySize=auto;html=1;exitX=1;exitY=0.75;exitDx=0;exitDy=0;entryX=0;entryY=0.5;entryDx=0;entryDy=0;fontSize=19;" edge="1" parent="1" source="fE8A6RjjX8CwtV2EgiGH-2" target="fE8A6RjjX8CwtV2EgiGH-21">
          <mxGeometry relative="1" as="geometry" />
        </mxCell>
        <mxCell id="fE8A6RjjX8CwtV2EgiGH-2" value="EMPLOYEE" style="rounded=0;whiteSpace=wrap;html=1;fontSize=19;fontStyle=1" vertex="1" parent="1">
          <mxGeometry x="-60" y="540" width="310" height="140" as="geometry" />
        </mxCell>
        <mxCell id="fE8A6RjjX8CwtV2EgiGH-3" value="DEPARTMENT" style="rounded=0;whiteSpace=wrap;html=1;fontSize=19;fontStyle=1" vertex="1" parent="1">
          <mxGeometry x="1542.5" y="470" width="190" height="120" as="geometry" />
        </mxCell>
        <mxCell id="fE8A6RjjX8CwtV2EgiGH-46" style="edgeStyle=orthogonalEdgeStyle;rounded=0;orthogonalLoop=1;jettySize=auto;html=1;exitX=0.75;exitY=1;exitDx=0;exitDy=0;entryX=0.5;entryY=0;entryDx=0;entryDy=0;fontSize=19;" edge="1" parent="1" source="fE8A6RjjX8CwtV2EgiGH-4" target="fE8A6RjjX8CwtV2EgiGH-33">
          <mxGeometry relative="1" as="geometry" />
        </mxCell>
        <mxCell id="fE8A6RjjX8CwtV2EgiGH-47" style="edgeStyle=orthogonalEdgeStyle;rounded=0;orthogonalLoop=1;jettySize=auto;html=1;exitX=0.25;exitY=1;exitDx=0;exitDy=0;fontSize=19;" edge="1" parent="1" source="fE8A6RjjX8CwtV2EgiGH-4" target="fE8A6RjjX8CwtV2EgiGH-34">
          <mxGeometry relative="1" as="geometry" />
        </mxCell>
        <mxCell id="fE8A6RjjX8CwtV2EgiGH-51" style="edgeStyle=orthogonalEdgeStyle;rounded=0;orthogonalLoop=1;jettySize=auto;html=1;exitX=0.5;exitY=0;exitDx=0;exitDy=0;entryX=0.5;entryY=1;entryDx=0;entryDy=0;fontSize=19;" edge="1" parent="1" source="fE8A6RjjX8CwtV2EgiGH-4" target="fE8A6RjjX8CwtV2EgiGH-48">
          <mxGeometry relative="1" as="geometry" />
        </mxCell>
        <mxCell id="fE8A6RjjX8CwtV2EgiGH-4" value="PROJECT" style="rounded=0;whiteSpace=wrap;html=1;fontSize=19;fontStyle=1" vertex="1" parent="1">
          <mxGeometry x="1537.5" y="910" width="200" height="104" as="geometry" />
        </mxCell>
        <mxCell id="fE8A6RjjX8CwtV2EgiGH-8" value="First Name" style="ellipse;whiteSpace=wrap;html=1;fontSize=19;fontStyle=1" vertex="1" parent="1">
          <mxGeometry x="-480" y="900" width="120" height="80" as="geometry" />
        </mxCell>
        <mxCell id="fE8A6RjjX8CwtV2EgiGH-9" value="Initials" style="ellipse;whiteSpace=wrap;html=1;fontSize=19;fontStyle=1" vertex="1" parent="1">
          <mxGeometry x="-250" y="900" width="120" height="80" as="geometry" />
        </mxCell>
        <mxCell id="fE8A6RjjX8CwtV2EgiGH-10" value="Last Name" style="ellipse;whiteSpace=wrap;html=1;fontSize=19;fontStyle=1" vertex="1" parent="1">
          <mxGeometry x="-60" y="790" width="120" height="80" as="geometry" />
        </mxCell>
        <mxCell id="fE8A6RjjX8CwtV2EgiGH-11" value="Name" style="ellipse;whiteSpace=wrap;html=1;fontSize=19;fontStyle=1" vertex="1" parent="1">
          <mxGeometry x="-310" y="700" width="120" height="80" as="geometry" />
        </mxCell>
        <mxCell id="fE8A6RjjX8CwtV2EgiGH-12" value="City" style="ellipse;whiteSpace=wrap;html=1;fontSize=19;fontStyle=1" vertex="1" parent="1">
          <mxGeometry x="-590" y="520" width="120" height="80" as="geometry" />
        </mxCell>
        <mxCell id="fE8A6RjjX8CwtV2EgiGH-13" value="Postal COde" style="ellipse;whiteSpace=wrap;html=1;fontSize=19;fontStyle=1" vertex="1" parent="1">
          <mxGeometry x="-680" y="310" width="120" height="80" as="geometry" />
        </mxCell>
        <mxCell id="fE8A6RjjX8CwtV2EgiGH-14" value="Street" style="ellipse;whiteSpace=wrap;html=1;fontSize=19;fontStyle=1" vertex="1" parent="1">
          <mxGeometry x="-440" y="240" width="120" height="80" as="geometry" />
        </mxCell>
        <mxCell id="fE8A6RjjX8CwtV2EgiGH-15" value="Address" style="ellipse;whiteSpace=wrap;html=1;fontSize=19;fontStyle=1" vertex="1" parent="1">
          <mxGeometry x="-360" y="460" width="120" height="80" as="geometry" />
        </mxCell>
        <mxCell id="fE8A6RjjX8CwtV2EgiGH-16" value="Birthdate" style="ellipse;whiteSpace=wrap;html=1;fontSize=19;fontStyle=1" vertex="1" parent="1">
          <mxGeometry x="180" y="340" width="120" height="80" as="geometry" />
        </mxCell>
        <mxCell id="fE8A6RjjX8CwtV2EgiGH-17" value="Gender" style="ellipse;whiteSpace=wrap;html=1;fontSize=19;fontStyle=1" vertex="1" parent="1">
          <mxGeometry x="90" y="190" width="120" height="80" as="geometry" />
        </mxCell>
        <mxCell id="fE8A6RjjX8CwtV2EgiGH-18" value="Employee0" style="ellipse;whiteSpace=wrap;html=1;fontSize=19;fontStyle=1" vertex="1" parent="1">
          <mxGeometry x="-130" y="310" width="120" height="80" as="geometry" />
        </mxCell>
        <mxCell id="fE8A6RjjX8CwtV2EgiGH-21" value="works_n" style="rhombus;whiteSpace=wrap;html=1;fontSize=19;" vertex="1" parent="1">
          <mxGeometry x="600" y="1034" width="160" height="120" as="geometry" />
        </mxCell>
        <mxCell id="fE8A6RjjX8CwtV2EgiGH-60" style="edgeStyle=orthogonalEdgeStyle;rounded=0;orthogonalLoop=1;jettySize=auto;html=1;exitX=0;exitY=0.5;exitDx=0;exitDy=0;entryX=1;entryY=0.5;entryDx=0;entryDy=0;fontSize=19;" edge="1" parent="1" source="fE8A6RjjX8CwtV2EgiGH-22" target="fE8A6RjjX8CwtV2EgiGH-2">
          <mxGeometry relative="1" as="geometry">
            <Array as="points">
              <mxPoint x="480" y="715" />
              <mxPoint x="480" y="610" />
            </Array>
          </mxGeometry>
        </mxCell>
        <mxCell id="fE8A6RjjX8CwtV2EgiGH-22" value="manages" style="rhombus;whiteSpace=wrap;html=1;fontSize=19;" vertex="1" parent="1">
          <mxGeometry x="560" y="660" width="200" height="110" as="geometry" />
        </mxCell>
        <mxCell id="fE8A6RjjX8CwtV2EgiGH-23" value="works_for" style="rhombus;whiteSpace=wrap;html=1;fontSize=19;" vertex="1" parent="1">
          <mxGeometry x="560" y="185" width="170" height="90" as="geometry" />
        </mxCell>
        <mxCell id="fE8A6RjjX8CwtV2EgiGH-28" value="Start Date" style="ellipse;whiteSpace=wrap;html=1;fontSize=19;" vertex="1" parent="1">
          <mxGeometry x="810" y="760" width="120" height="80" as="geometry" />
        </mxCell>
        <mxCell id="fE8A6RjjX8CwtV2EgiGH-30" value="" style="ellipse;whiteSpace=wrap;html=1;fontSize=19;" vertex="1" parent="1">
          <mxGeometry x="1710" y="140" width="210" height="120" as="geometry" />
        </mxCell>
        <mxCell id="fE8A6RjjX8CwtV2EgiGH-31" value="" style="ellipse;whiteSpace=wrap;html=1;fontSize=19;" vertex="1" parent="1">
          <mxGeometry x="1450" y="50" width="180" height="100" as="geometry" />
        </mxCell>
        <mxCell id="fE8A6RjjX8CwtV2EgiGH-32" value="" style="ellipse;whiteSpace=wrap;html=1;fontSize=19;" vertex="1" parent="1">
          <mxGeometry x="1380" y="190" width="120" height="80" as="geometry" />
        </mxCell>
        <mxCell id="fE8A6RjjX8CwtV2EgiGH-33" value="ProjectID" style="ellipse;whiteSpace=wrap;html=1;fontSize=19;" vertex="1" parent="1">
          <mxGeometry x="1680" y="1094" width="120" height="80" as="geometry" />
        </mxCell>
        <mxCell id="fE8A6RjjX8CwtV2EgiGH-34" value="Name" style="ellipse;whiteSpace=wrap;html=1;fontSize=19;" vertex="1" parent="1">
          <mxGeometry x="1480" y="1094" width="120" height="80" as="geometry" />
        </mxCell>
        <mxCell id="fE8A6RjjX8CwtV2EgiGH-35" value="Hours" style="ellipse;whiteSpace=wrap;html=1;fontSize=19;" vertex="1" parent="1">
          <mxGeometry x="760" y="1154" width="120" height="80" as="geometry" />
        </mxCell>
        <mxCell id="fE8A6RjjX8CwtV2EgiGH-36" value="Location" style="ellipse;whiteSpace=wrap;html=1;fontSize=19;" vertex="1" parent="1">
          <mxGeometry x="1750" y="160" width="130" height="80" as="geometry" />
        </mxCell>
        <mxCell id="fE8A6RjjX8CwtV2EgiGH-40" value="Number Of Employees" style="ellipse;whiteSpace=wrap;html=1;align=center;dashed=1;fontSize=19;" vertex="1" parent="1">
          <mxGeometry x="970" y="490" width="200" height="100" as="geometry" />
        </mxCell>
        <mxCell id="fE8A6RjjX8CwtV2EgiGH-41" value="" style="endArrow=none;html=1;rounded=0;fontSize=19;entryX=0;entryY=0;entryDx=0;entryDy=0;" edge="1" parent="1" target="fE8A6RjjX8CwtV2EgiGH-28">
          <mxGeometry relative="1" as="geometry">
            <mxPoint x="700" y="750" as="sourcePoint" />
            <mxPoint x="870" y="750" as="targetPoint" />
            <Array as="points">
              <mxPoint x="760" y="760" />
            </Array>
          </mxGeometry>
        </mxCell>
        <mxCell id="fE8A6RjjX8CwtV2EgiGH-42" value="" style="endArrow=none;html=1;rounded=0;fontSize=19;entryX=0;entryY=0.5;entryDx=0;entryDy=0;exitX=1;exitY=0.5;exitDx=0;exitDy=0;" edge="1" parent="1" source="fE8A6RjjX8CwtV2EgiGH-22" target="fE8A6RjjX8CwtV2EgiGH-3">
          <mxGeometry relative="1" as="geometry">
            <mxPoint x="770" y="590" as="sourcePoint" />
            <mxPoint x="1130" y="580" as="targetPoint" />
          </mxGeometry>
        </mxCell>
        <mxCell id="fE8A6RjjX8CwtV2EgiGH-43" value="" style="endArrow=none;html=1;rounded=0;fontSize=19;entryX=0;entryY=0.5;entryDx=0;entryDy=0;" edge="1" parent="1" source="fE8A6RjjX8CwtV2EgiGH-40" target="fE8A6RjjX8CwtV2EgiGH-3">
          <mxGeometry relative="1" as="geometry">
            <mxPoint x="1370" y="570" as="sourcePoint" />
            <mxPoint x="1530" y="570" as="targetPoint" />
            <Array as="points" />
          </mxGeometry>
        </mxCell>
        <mxCell id="fE8A6RjjX8CwtV2EgiGH-52" style="edgeStyle=orthogonalEdgeStyle;rounded=0;orthogonalLoop=1;jettySize=auto;html=1;exitX=0.5;exitY=0;exitDx=0;exitDy=0;fontSize=19;" edge="1" parent="1" source="fE8A6RjjX8CwtV2EgiGH-48" target="fE8A6RjjX8CwtV2EgiGH-3">
          <mxGeometry relative="1" as="geometry" />
        </mxCell>
        <mxCell id="fE8A6RjjX8CwtV2EgiGH-48" value="controls" style="rhombus;whiteSpace=wrap;html=1;fontSize=19;" vertex="1" parent="1">
          <mxGeometry x="1585" y="740" width="105" height="80" as="geometry" />
        </mxCell>
      </root>
    </mxGraphModel>
  </diagram>
</mxfile>
